<mxfile host="65bd71144e">
    <diagram id="UwaWhWNq3lZe1b48dRs8" name="PÃ¡gina-1">
        <mxGraphModel dx="1039" dy="481" grid="1" gridSize="10" guides="1" tooltips="1" connect="1" arrows="1" fold="1" page="1" pageScale="1" pageWidth="3300" pageHeight="4681" background="#ffffff" math="0" shadow="0">
            <root>
                <mxCell id="0"/>
                <mxCell id="1" parent="0"/>
                <mxCell id="2" value="UserController" style="rounded=1;whiteSpace=wrap;html=1;fillColor=#1ba1e2;strokeColor=#006EAF;labelBackgroundColor=none;fontColor=#ffffff;" vertex="1" parent="1">
                    <mxGeometry x="190" y="60" width="120" height="40" as="geometry"/>
                </mxCell>
                <mxCell id="3" value="Cliente" style="rounded=1;whiteSpace=wrap;html=1;fillColor=#1ba1e2;strokeColor=#006EAF;labelBackgroundColor=none;fontColor=#ffffff;" vertex="1" parent="1">
                    <mxGeometry x="40" y="60" width="120" height="40" as="geometry"/>
                </mxCell>
                <mxCell id="5" value="" style="endArrow=classic;html=1;fontColor=#000000;exitX=0.5;exitY=1;exitDx=0;exitDy=0;labelBackgroundColor=none;strokeColor=#000000;" edge="1" parent="1" source="3">
                    <mxGeometry width="50" height="50" relative="1" as="geometry">
                        <mxPoint x="250" y="250" as="sourcePoint"/>
                        <mxPoint x="100" y="1010" as="targetPoint"/>
                    </mxGeometry>
                </mxCell>
                <mxCell id="6" value="" style="endArrow=classic;html=1;fontColor=#000000;exitX=0.5;exitY=1;exitDx=0;exitDy=0;labelBackgroundColor=none;strokeColor=#000000;entryX=0.5;entryY=0;entryDx=0;entryDy=0;" edge="1" parent="1" source="2" target="21">
                    <mxGeometry width="50" height="50" relative="1" as="geometry">
                        <mxPoint x="249.65999999999988" y="125.00000000000006" as="sourcePoint"/>
                        <mxPoint x="249.9999999999999" y="200" as="targetPoint"/>
                    </mxGeometry>
                </mxCell>
                <mxCell id="7" value="" style="endArrow=classic;html=1;labelBackgroundColor=none;strokeColor=#000000;fontColor=#FFFFFF;" edge="1" parent="1">
                    <mxGeometry width="50" height="50" relative="1" as="geometry">
                        <mxPoint x="100" y="140" as="sourcePoint"/>
                        <mxPoint x="250" y="140" as="targetPoint"/>
                    </mxGeometry>
                </mxCell>
                <mxCell id="8" value="POST/sing-up" style="edgeLabel;html=1;align=center;verticalAlign=middle;resizable=0;points=[];fontColor=#000000;labelBackgroundColor=none;" vertex="1" connectable="0" parent="7">
                    <mxGeometry x="-0.3213" relative="1" as="geometry">
                        <mxPoint x="-11" y="-10" as="offset"/>
                    </mxGeometry>
                </mxCell>
                <mxCell id="9" value="Validate Request" style="endArrow=classic;html=1;labelBackgroundColor=none;strokeColor=#000000;fontColor=#000000;" edge="1" parent="1">
                    <mxGeometry width="50" height="50" relative="1" as="geometry">
                        <mxPoint x="250" y="140" as="sourcePoint"/>
                        <mxPoint x="250" y="180" as="targetPoint"/>
                        <Array as="points">
                            <mxPoint x="320" y="140"/>
                            <mxPoint x="320" y="180"/>
                        </Array>
                    </mxGeometry>
                </mxCell>
                <mxCell id="12" value="400/Bad Request" style="edgeStyle=none;html=1;labelBackgroundColor=none;strokeColor=#000000;fontColor=#000000;exitX=0;exitY=0.5;exitDx=0;exitDy=0;" edge="1" parent="1" source="21">
                    <mxGeometry x="-0.1111" y="-15" relative="1" as="geometry">
                        <mxPoint x="100" y="225" as="targetPoint"/>
                        <mxPoint x="189.9999999999999" y="225" as="sourcePoint"/>
                        <mxPoint as="offset"/>
                    </mxGeometry>
                </mxCell>
                <mxCell id="16" style="edgeStyle=none;html=1;labelBackgroundColor=none;strokeColor=#000000;fontColor=#000000;entryX=0.5;entryY=0;entryDx=0;entryDy=0;" edge="1" parent="1" source="15" target="26">
                    <mxGeometry relative="1" as="geometry">
                        <mxPoint x="460" y="270" as="targetPoint"/>
                    </mxGeometry>
                </mxCell>
                <mxCell id="15" value="UserService" style="rounded=1;whiteSpace=wrap;html=1;fillColor=#1ba1e2;strokeColor=#006EAF;labelBackgroundColor=none;fontColor=#ffffff;" vertex="1" parent="1">
                    <mxGeometry x="400" y="60" width="120" height="40" as="geometry"/>
                </mxCell>
                <mxCell id="30" style="edgeStyle=none;html=1;exitX=0.5;exitY=1;exitDx=0;exitDy=0;labelBackgroundColor=none;strokeColor=#000000;fontColor=#000000;" edge="1" parent="1" source="17" target="29">
                    <mxGeometry relative="1" as="geometry"/>
                </mxCell>
                <mxCell id="17" value="UserRepository" style="rounded=1;whiteSpace=wrap;html=1;fillColor=#1ba1e2;strokeColor=#006EAF;labelBackgroundColor=none;fontColor=#ffffff;" vertex="1" parent="1">
                    <mxGeometry x="570" y="60" width="120" height="40" as="geometry"/>
                </mxCell>
                <mxCell id="25" style="edgeStyle=none;html=1;entryX=0.5;entryY=0;entryDx=0;entryDy=0;labelBackgroundColor=none;strokeColor=#000000;fontColor=#000000;" edge="1" parent="1" source="21" target="22">
                    <mxGeometry relative="1" as="geometry"/>
                </mxCell>
                <mxCell id="21" value="Request Error" style="rounded=0;whiteSpace=wrap;html=1;labelBackgroundColor=none;strokeColor=#2D7600;fontColor=#ffffff;fillColor=#60a917;" vertex="1" parent="1">
                    <mxGeometry x="190" y="210" width="120" height="30" as="geometry"/>
                </mxCell>
                <mxCell id="28" style="edgeStyle=none;html=1;entryX=0;entryY=0.5;entryDx=0;entryDy=0;labelBackgroundColor=none;strokeColor=#000000;fontColor=#000000;" edge="1" parent="1" source="22" target="26">
                    <mxGeometry relative="1" as="geometry"/>
                </mxCell>
                <mxCell id="43" style="edgeStyle=none;html=1;exitX=0.5;exitY=1;exitDx=0;exitDy=0;entryX=0.5;entryY=0;entryDx=0;entryDy=0;labelBackgroundColor=none;strokeColor=#000000;fontColor=#000000;" edge="1" parent="1" source="22" target="42">
                    <mxGeometry relative="1" as="geometry"/>
                </mxCell>
                <mxCell id="22" value="Request Ok" style="rounded=0;whiteSpace=wrap;html=1;labelBackgroundColor=none;strokeColor=#6F0000;fontColor=#ffffff;fillColor=#a20025;" vertex="1" parent="1">
                    <mxGeometry x="190" y="270" width="120" height="30" as="geometry"/>
                </mxCell>
                <mxCell id="31" style="edgeStyle=none;html=1;entryX=0;entryY=0.5;entryDx=0;entryDy=0;labelBackgroundColor=none;strokeColor=#000000;fontColor=#000000;" edge="1" parent="1" source="26" target="29">
                    <mxGeometry relative="1" as="geometry"/>
                </mxCell>
                <mxCell id="36" style="edgeStyle=none;html=1;exitX=0.5;exitY=1;exitDx=0;exitDy=0;labelBackgroundColor=none;strokeColor=#000000;fontColor=#000000;entryX=0.5;entryY=0;entryDx=0;entryDy=0;" edge="1" parent="1" source="26" target="37">
                    <mxGeometry relative="1" as="geometry">
                        <mxPoint x="459.7241379310344" y="460" as="targetPoint"/>
                    </mxGeometry>
                </mxCell>
                <mxCell id="26" value="singUpUser" style="rounded=0;whiteSpace=wrap;html=1;labelBackgroundColor=none;strokeColor=#005700;fontColor=#ffffff;fillColor=#008a00;" vertex="1" parent="1">
                    <mxGeometry x="400" y="270" width="120" height="30" as="geometry"/>
                </mxCell>
                <mxCell id="34" style="edgeStyle=none;html=1;exitX=0.5;exitY=1;exitDx=0;exitDy=0;entryX=0.5;entryY=0;entryDx=0;entryDy=0;labelBackgroundColor=none;strokeColor=#000000;fontColor=#000000;" edge="1" parent="1" source="29" target="32">
                    <mxGeometry relative="1" as="geometry"/>
                </mxCell>
                <mxCell id="29" value="findOneByEmail" style="rounded=0;whiteSpace=wrap;html=1;labelBackgroundColor=none;strokeColor=#005700;fontColor=#ffffff;fillColor=#008a00;" vertex="1" parent="1">
                    <mxGeometry x="570" y="270" width="120" height="30" as="geometry"/>
                </mxCell>
                <mxCell id="38" style="edgeStyle=none;html=1;labelBackgroundColor=none;strokeColor=#000000;fontColor=#000000;" edge="1" parent="1" source="32" target="37">
                    <mxGeometry relative="1" as="geometry"/>
                </mxCell>
                <mxCell id="39" style="edgeStyle=none;html=1;exitX=0.5;exitY=1;exitDx=0;exitDy=0;entryX=0.5;entryY=0;entryDx=0;entryDy=0;labelBackgroundColor=none;strokeColor=#000000;fontColor=#000000;" edge="1" parent="1" source="32" target="33">
                    <mxGeometry relative="1" as="geometry"/>
                </mxCell>
                <mxCell id="32" value="User Exist" style="rounded=0;whiteSpace=wrap;html=1;labelBackgroundColor=none;strokeColor=#6F0000;fontColor=#ffffff;fillColor=#a20025;" vertex="1" parent="1">
                    <mxGeometry x="570" y="330" width="120" height="30" as="geometry"/>
                </mxCell>
                <mxCell id="50" style="edgeStyle=none;html=1;exitX=0;exitY=0.5;exitDx=0;exitDy=0;entryX=1;entryY=0.5;entryDx=0;entryDy=0;labelBackgroundColor=none;strokeColor=#000000;fontColor=#000000;" edge="1" parent="1" source="33" target="48">
                    <mxGeometry relative="1" as="geometry"/>
                </mxCell>
                <mxCell id="55" style="edgeStyle=none;html=1;exitX=0.5;exitY=1;exitDx=0;exitDy=0;entryX=0.5;entryY=0;entryDx=0;entryDy=0;labelBackgroundColor=none;strokeColor=#000000;fontColor=#000000;" edge="1" parent="1" source="33" target="53">
                    <mxGeometry relative="1" as="geometry"/>
                </mxCell>
                <mxCell id="33" value="User Not Found" style="rounded=0;whiteSpace=wrap;html=1;labelBackgroundColor=none;strokeColor=#005700;fontColor=#ffffff;fillColor=#008a00;" vertex="1" parent="1">
                    <mxGeometry x="570" y="380" width="120" height="30" as="geometry"/>
                </mxCell>
                <mxCell id="44" style="edgeStyle=none;html=1;exitX=0;exitY=0.5;exitDx=0;exitDy=0;entryX=1;entryY=0.5;entryDx=0;entryDy=0;labelBackgroundColor=none;strokeColor=#000000;fontColor=#000000;" edge="1" parent="1" source="37" target="42">
                    <mxGeometry relative="1" as="geometry"/>
                </mxCell>
                <mxCell id="49" style="edgeStyle=none;html=1;exitX=0.5;exitY=1;exitDx=0;exitDy=0;entryX=0.5;entryY=0;entryDx=0;entryDy=0;labelBackgroundColor=none;strokeColor=#000000;fontColor=#000000;" edge="1" parent="1" source="37" target="48">
                    <mxGeometry relative="1" as="geometry"/>
                </mxCell>
                <mxCell id="37" value="conflictException" style="rounded=0;whiteSpace=wrap;html=1;labelBackgroundColor=none;strokeColor=#6F0000;fontColor=#ffffff;fillColor=#a20025;" vertex="1" parent="1">
                    <mxGeometry x="400" y="330" width="120" height="30" as="geometry"/>
                </mxCell>
                <mxCell id="45" style="edgeStyle=none;html=1;exitX=0;exitY=0.5;exitDx=0;exitDy=0;labelBackgroundColor=none;strokeColor=#000000;fontColor=#000000;" edge="1" parent="1" source="42">
                    <mxGeometry relative="1" as="geometry">
                        <mxPoint x="99.99999999999989" y="345.1034482758621" as="targetPoint"/>
                    </mxGeometry>
                </mxCell>
                <mxCell id="47" value="409/There is already a &lt;br&gt;registered&amp;nbsp; user with that email" style="edgeLabel;html=1;align=center;verticalAlign=middle;resizable=0;points=[];fontColor=#000000;labelBackgroundColor=none;" vertex="1" connectable="0" parent="45">
                    <mxGeometry x="-0.1909" relative="1" as="geometry">
                        <mxPoint x="-40" y="18" as="offset"/>
                    </mxGeometry>
                </mxCell>
                <mxCell id="70" style="edgeStyle=none;html=1;exitX=0.5;exitY=1;exitDx=0;exitDy=0;entryX=0.5;entryY=0;entryDx=0;entryDy=0;labelBackgroundColor=none;strokeColor=#000000;fontColor=#000000;" edge="1" parent="1" source="42" target="68">
                    <mxGeometry relative="1" as="geometry"/>
                </mxCell>
                <mxCell id="42" value="ApiExceptionHandler" style="rounded=0;whiteSpace=wrap;html=1;labelBackgroundColor=none;strokeColor=#6F0000;fontColor=#ffffff;fillColor=#a20025;" vertex="1" parent="1">
                    <mxGeometry x="190" y="330" width="120" height="30" as="geometry"/>
                </mxCell>
                <mxCell id="65" style="edgeStyle=none;html=1;exitX=0.5;exitY=1;exitDx=0;exitDy=0;entryX=0.5;entryY=0;entryDx=0;entryDy=0;labelBackgroundColor=none;strokeColor=#000000;fontColor=#000000;" edge="1" parent="1" source="48" target="64">
                    <mxGeometry relative="1" as="geometry"/>
                </mxCell>
                <mxCell id="48" value="EncoderPassword" style="rounded=0;whiteSpace=wrap;html=1;labelBackgroundColor=none;strokeColor=#005700;fontColor=#ffffff;fillColor=#008a00;" vertex="1" parent="1">
                    <mxGeometry x="400" y="380" width="120" height="30" as="geometry"/>
                </mxCell>
                <mxCell id="56" style="edgeStyle=none;html=1;exitX=0.5;exitY=1;exitDx=0;exitDy=0;labelBackgroundColor=none;strokeColor=#000000;fontColor=#000000;" edge="1" parent="1" source="53" target="81">
                    <mxGeometry relative="1" as="geometry">
                        <mxPoint x="630" y="790" as="targetPoint"/>
                    </mxGeometry>
                </mxCell>
                <mxCell id="67" style="edgeStyle=none;html=1;exitX=0.25;exitY=1;exitDx=0;exitDy=0;entryX=1;entryY=0.5;entryDx=0;entryDy=0;labelBackgroundColor=none;strokeColor=#000000;fontColor=#000000;" edge="1" parent="1" source="53" target="57">
                    <mxGeometry relative="1" as="geometry">
                        <Array as="points">
                            <mxPoint x="600" y="495"/>
                        </Array>
                    </mxGeometry>
                </mxCell>
                <mxCell id="53" value="saveUser" style="rounded=0;whiteSpace=wrap;html=1;labelBackgroundColor=none;strokeColor=#005700;fontColor=#ffffff;fillColor=#008a00;" vertex="1" parent="1">
                    <mxGeometry x="570" y="440" width="120" height="30" as="geometry"/>
                </mxCell>
                <mxCell id="63" style="edgeStyle=none;html=1;exitX=0.5;exitY=1;exitDx=0;exitDy=0;entryX=0.5;entryY=0;entryDx=0;entryDy=0;labelBackgroundColor=none;strokeColor=#000000;fontColor=#000000;" edge="1" parent="1" source="57" target="62">
                    <mxGeometry relative="1" as="geometry"/>
                </mxCell>
                <mxCell id="57" value="Auntentication" style="rounded=0;whiteSpace=wrap;html=1;labelBackgroundColor=none;strokeColor=#005700;fontColor=#ffffff;fillColor=#008a00;" vertex="1" parent="1">
                    <mxGeometry x="400" y="480" width="120" height="30" as="geometry"/>
                </mxCell>
                <mxCell id="69" style="edgeStyle=none;html=1;exitX=0;exitY=0.5;exitDx=0;exitDy=0;entryX=1;entryY=0.5;entryDx=0;entryDy=0;labelBackgroundColor=none;strokeColor=#000000;fontColor=#000000;" edge="1" parent="1" source="62" target="68">
                    <mxGeometry relative="1" as="geometry"/>
                </mxCell>
                <mxCell id="88" style="edgeStyle=none;html=1;exitX=0.5;exitY=1;exitDx=0;exitDy=0;labelBackgroundColor=none;strokeColor=#000000;fontColor=#000000;entryX=0.5;entryY=0;entryDx=0;entryDy=0;" edge="1" parent="1" source="62" target="89">
                    <mxGeometry relative="1" as="geometry">
                        <mxPoint x="460.16666666666674" y="850" as="targetPoint"/>
                    </mxGeometry>
                </mxCell>
                <mxCell id="62" value="Generate Jwt" style="rounded=0;whiteSpace=wrap;html=1;labelBackgroundColor=none;strokeColor=#005700;fontColor=#ffffff;fillColor=#008a00;" vertex="1" parent="1">
                    <mxGeometry x="400" y="530" width="120" height="30" as="geometry"/>
                </mxCell>
                <mxCell id="66" style="edgeStyle=none;html=1;entryX=0;entryY=0.5;entryDx=0;entryDy=0;labelBackgroundColor=none;strokeColor=#000000;fontColor=#000000;" edge="1" parent="1" source="64" target="53">
                    <mxGeometry relative="1" as="geometry"/>
                </mxCell>
                <mxCell id="64" value="saveUser" style="rounded=0;whiteSpace=wrap;html=1;labelBackgroundColor=none;strokeColor=#005700;fontColor=#ffffff;fillColor=#008a00;" vertex="1" parent="1">
                    <mxGeometry x="400" y="440" width="120" height="30" as="geometry"/>
                </mxCell>
                <mxCell id="71" value="200/ Jwt" style="edgeStyle=none;html=1;exitX=0;exitY=0.5;exitDx=0;exitDy=0;labelBackgroundColor=none;strokeColor=#000000;fontColor=#000000;" edge="1" parent="1" source="68">
                    <mxGeometry x="-0.1117" y="15" relative="1" as="geometry">
                        <mxPoint x="100" y="544.8333333333334" as="targetPoint"/>
                        <mxPoint as="offset"/>
                    </mxGeometry>
                </mxCell>
                <mxCell id="72" style="edgeStyle=none;html=1;exitX=0.5;exitY=1;exitDx=0;exitDy=0;labelBackgroundColor=none;strokeColor=#000000;fontColor=#000000;entryX=0.5;entryY=0;entryDx=0;entryDy=0;" edge="1" parent="1" source="68" target="75">
                    <mxGeometry relative="1" as="geometry">
                        <mxPoint x="249.75" y="749.9999999999998" as="targetPoint"/>
                    </mxGeometry>
                </mxCell>
                <mxCell id="68" value="Response singup OK" style="rounded=0;whiteSpace=wrap;html=1;labelBackgroundColor=none;strokeColor=#2D7600;fontColor=#ffffff;fillColor=#60a917;" vertex="1" parent="1">
                    <mxGeometry x="190" y="530" width="120" height="30" as="geometry"/>
                </mxCell>
                <mxCell id="73" value="" style="endArrow=classic;html=1;labelBackgroundColor=none;strokeColor=#000000;fontColor=#FFFFFF;" edge="1" parent="1">
                    <mxGeometry width="50" height="50" relative="1" as="geometry">
                        <mxPoint x="100" y="630" as="sourcePoint"/>
                        <mxPoint x="250" y="630" as="targetPoint"/>
                    </mxGeometry>
                </mxCell>
                <mxCell id="74" value="POST/login" style="edgeLabel;html=1;align=center;verticalAlign=middle;resizable=0;points=[];fontColor=#000000;labelBackgroundColor=none;" vertex="1" connectable="0" parent="73">
                    <mxGeometry x="-0.3213" relative="1" as="geometry">
                        <mxPoint x="-11" y="-10" as="offset"/>
                    </mxGeometry>
                </mxCell>
                <mxCell id="78" style="edgeStyle=none;html=1;labelBackgroundColor=none;strokeColor=#000000;fontColor=#000000;entryX=0;entryY=0.5;entryDx=0;entryDy=0;" edge="1" parent="1" source="75" target="79">
                    <mxGeometry relative="1" as="geometry">
                        <mxPoint x="790" y="680" as="targetPoint"/>
                    </mxGeometry>
                </mxCell>
                <mxCell id="84" style="edgeStyle=none;html=1;exitX=0.5;exitY=1;exitDx=0;exitDy=0;labelBackgroundColor=none;strokeColor=#000000;fontColor=#000000;entryX=0.5;entryY=0;entryDx=0;entryDy=0;" edge="1" parent="1" source="75" target="86">
                    <mxGeometry relative="1" as="geometry">
                        <mxPoint x="249.89473684210543" y="850" as="targetPoint"/>
                    </mxGeometry>
                </mxCell>
                <mxCell id="75" value="ApiTokenFilter" style="rounded=0;whiteSpace=wrap;html=1;labelBackgroundColor=none;strokeColor=#B09500;fontColor=#000000;fillColor=#e3c800;" vertex="1" parent="1">
                    <mxGeometry x="190" y="660" width="120" height="40" as="geometry"/>
                </mxCell>
                <mxCell id="77" style="edgeStyle=none;html=1;labelBackgroundColor=none;strokeColor=#000000;fontColor=#000000;" edge="1" parent="1" source="76" target="79">
                    <mxGeometry relative="1" as="geometry">
                        <mxPoint x="810" y="790" as="targetPoint"/>
                    </mxGeometry>
                </mxCell>
                <mxCell id="76" value="UserDetailsServiceImpl" style="rounded=1;whiteSpace=wrap;html=1;fillColor=#1ba1e2;strokeColor=#006EAF;labelBackgroundColor=none;fontColor=#ffffff;" vertex="1" parent="1">
                    <mxGeometry x="740" y="60" width="140" height="40" as="geometry"/>
                </mxCell>
                <mxCell id="80" style="edgeStyle=none;html=1;exitX=0.5;exitY=1;exitDx=0;exitDy=0;labelBackgroundColor=none;strokeColor=#000000;fontColor=#000000;" edge="1" parent="1" source="79">
                    <mxGeometry relative="1" as="geometry">
                        <mxPoint x="810" y="1010" as="targetPoint"/>
                    </mxGeometry>
                </mxCell>
                <mxCell id="79" value="loadUserByUsername" style="rounded=0;whiteSpace=wrap;html=1;labelBackgroundColor=none;strokeColor=#005700;fontColor=#ffffff;fillColor=#008a00;" vertex="1" parent="1">
                    <mxGeometry x="745" y="660" width="130" height="40" as="geometry"/>
                </mxCell>
                <mxCell id="83" style="edgeStyle=none;html=1;exitX=0.5;exitY=1;exitDx=0;exitDy=0;labelBackgroundColor=none;strokeColor=#000000;fontColor=#000000;" edge="1" parent="1" source="81">
                    <mxGeometry relative="1" as="geometry">
                        <mxPoint x="810" y="780" as="targetPoint"/>
                        <Array as="points">
                            <mxPoint x="630" y="780"/>
                        </Array>
                    </mxGeometry>
                </mxCell>
                <mxCell id="93" style="edgeStyle=none;html=1;exitX=0.5;exitY=1;exitDx=0;exitDy=0;labelBackgroundColor=none;strokeColor=#000000;fontColor=#000000;" edge="1" parent="1" source="81" target="91">
                    <mxGeometry relative="1" as="geometry"/>
                </mxCell>
                <mxCell id="81" value="findOneByEmail" style="rounded=0;whiteSpace=wrap;html=1;labelBackgroundColor=none;strokeColor=#005700;fontColor=#ffffff;fillColor=#008a00;" vertex="1" parent="1">
                    <mxGeometry x="570" y="730" width="120" height="30" as="geometry"/>
                </mxCell>
                <mxCell id="82" value="" style="endArrow=classic;html=1;labelBackgroundColor=none;strokeColor=#000000;fontColor=#000000;entryX=1;entryY=0.5;entryDx=0;entryDy=0;" edge="1" parent="1" target="81">
                    <mxGeometry width="50" height="50" relative="1" as="geometry">
                        <mxPoint x="810" y="745" as="sourcePoint"/>
                        <mxPoint x="770" y="750" as="targetPoint"/>
                    </mxGeometry>
                </mxCell>
                <mxCell id="85" value="" style="endArrow=classic;html=1;labelBackgroundColor=none;strokeColor=#000000;fontColor=#000000;entryX=1;entryY=0.5;entryDx=0;entryDy=0;" edge="1" parent="1" target="86">
                    <mxGeometry width="50" height="50" relative="1" as="geometry">
                        <mxPoint x="810" y="805" as="sourcePoint"/>
                        <mxPoint x="250" y="810" as="targetPoint"/>
                    </mxGeometry>
                </mxCell>
                <mxCell id="87" style="edgeStyle=none;html=1;exitX=0.5;exitY=1;exitDx=0;exitDy=0;labelBackgroundColor=none;strokeColor=#000000;fontColor=#000000;entryX=0.5;entryY=0;entryDx=0;entryDy=0;" edge="1" parent="1" source="86" target="103">
                    <mxGeometry relative="1" as="geometry">
                        <mxPoint x="250" y="1010" as="targetPoint"/>
                    </mxGeometry>
                </mxCell>
                <mxCell id="86" value="Jwt OK" style="rounded=0;whiteSpace=wrap;html=1;labelBackgroundColor=none;strokeColor=#2D7600;fontColor=#ffffff;fillColor=#60a917;" vertex="1" parent="1">
                    <mxGeometry x="190" y="790" width="120" height="30" as="geometry"/>
                </mxCell>
                <mxCell id="92" style="edgeStyle=none;html=1;exitX=1;exitY=0.5;exitDx=0;exitDy=0;entryX=0;entryY=0.5;entryDx=0;entryDy=0;labelBackgroundColor=none;strokeColor=#000000;fontColor=#000000;" edge="1" parent="1" source="89" target="91">
                    <mxGeometry relative="1" as="geometry"/>
                </mxCell>
                <mxCell id="99" style="edgeStyle=none;html=1;exitX=0.5;exitY=1;exitDx=0;exitDy=0;labelBackgroundColor=none;strokeColor=#000000;fontColor=#000000;" edge="1" parent="1" source="89">
                    <mxGeometry relative="1" as="geometry">
                        <mxPoint x="460" y="1010" as="targetPoint"/>
                    </mxGeometry>
                </mxCell>
                <mxCell id="89" value="loginUser" style="rounded=0;whiteSpace=wrap;html=1;labelBackgroundColor=none;strokeColor=#005700;fontColor=#ffffff;fillColor=#008a00;" vertex="1" parent="1">
                    <mxGeometry x="400" y="850" width="120" height="30" as="geometry"/>
                </mxCell>
                <mxCell id="90" value="" style="endArrow=classic;html=1;labelBackgroundColor=none;strokeColor=#000000;fontColor=#000000;entryX=0;entryY=0.5;entryDx=0;entryDy=0;" edge="1" parent="1" target="89">
                    <mxGeometry width="50" height="50" relative="1" as="geometry">
                        <mxPoint x="250" y="865" as="sourcePoint"/>
                        <mxPoint x="370" y="860" as="targetPoint"/>
                    </mxGeometry>
                </mxCell>
                <mxCell id="98" style="edgeStyle=none;html=1;exitX=0.5;exitY=1;exitDx=0;exitDy=0;entryX=0.5;entryY=0;entryDx=0;entryDy=0;labelBackgroundColor=none;strokeColor=#000000;fontColor=#000000;" edge="1" parent="1" source="91" target="95">
                    <mxGeometry relative="1" as="geometry"/>
                </mxCell>
                <mxCell id="91" value="findOneByEmail" style="rounded=0;whiteSpace=wrap;html=1;labelBackgroundColor=none;strokeColor=#005700;fontColor=#ffffff;fillColor=#008a00;" vertex="1" parent="1">
                    <mxGeometry x="570" y="850" width="120" height="30" as="geometry"/>
                </mxCell>
                <mxCell id="100" style="edgeStyle=none;html=1;exitX=0;exitY=0.75;exitDx=0;exitDy=0;labelBackgroundColor=none;strokeColor=#000000;fontColor=#000000;" edge="1" parent="1" source="95">
                    <mxGeometry relative="1" as="geometry">
                        <mxPoint x="460" y="932.304347826087" as="targetPoint"/>
                    </mxGeometry>
                </mxCell>
                <mxCell id="95" value="findPhoneByUser" style="rounded=0;whiteSpace=wrap;html=1;labelBackgroundColor=none;strokeColor=#005700;fontColor=#ffffff;fillColor=#008a00;" vertex="1" parent="1">
                    <mxGeometry x="570" y="910" width="120" height="30" as="geometry"/>
                </mxCell>
                <mxCell id="101" value="" style="endArrow=classic;html=1;labelBackgroundColor=none;strokeColor=#000000;fontColor=#000000;" edge="1" parent="1">
                    <mxGeometry width="50" height="50" relative="1" as="geometry">
                        <mxPoint x="460" y="930" as="sourcePoint"/>
                        <mxPoint x="250" y="930" as="targetPoint"/>
                    </mxGeometry>
                </mxCell>
                <mxCell id="102" value="200/UserLoginResponsedDto" style="endArrow=classic;html=1;labelBackgroundColor=none;strokeColor=#000000;fontColor=#000000;" edge="1" parent="1">
                    <mxGeometry x="-0.0667" y="-20" width="50" height="50" relative="1" as="geometry">
                        <mxPoint x="250" y="930" as="sourcePoint"/>
                        <mxPoint x="100" y="930" as="targetPoint"/>
                        <mxPoint as="offset"/>
                    </mxGeometry>
                </mxCell>
                <mxCell id="104" value="401/Unauthorized" style="edgeStyle=none;html=1;exitX=0;exitY=0.5;exitDx=0;exitDy=0;labelBackgroundColor=none;strokeColor=#000000;fontColor=#000000;" edge="1" parent="1" source="103">
                    <mxGeometry x="-0.1096" y="25" relative="1" as="geometry">
                        <mxPoint x="100" y="965.2380952380952" as="targetPoint"/>
                        <mxPoint as="offset"/>
                    </mxGeometry>
                </mxCell>
                <mxCell id="103" value="Jwt Error" style="rounded=0;whiteSpace=wrap;html=1;labelBackgroundColor=none;strokeColor=#6F0000;fontColor=#ffffff;fillColor=#a20025;" vertex="1" parent="1">
                    <mxGeometry x="190" y="950" width="120" height="30" as="geometry"/>
                </mxCell>
            </root>
        </mxGraphModel>
    </diagram>
</mxfile>